<?xml version="1.0" encoding="UTF-8" standalone="no"?>
<!-- Created with Inkscape (http://www.inkscape.org/) -->

<svg
   width="156.42mm"
   height="156.42mm"
   viewBox="0 0 156.41999 156.41999"
   version="1.1"
   id="svg51369"
   xml:space="preserve"
   inkscape:version="1.2.2 (b0a84865, 2022-12-01)"
   sodipodi:docname="portlandai-4.svg"
   xmlns:inkscape="http://www.inkscape.org/namespaces/inkscape"
   xmlns:sodipodi="http://sodipodi.sourceforge.net/DTD/sodipodi-0.dtd"
   xmlns:xlink="http://www.w3.org/1999/xlink"
   xmlns="http://www.w3.org/2000/svg"
   xmlns:svg="http://www.w3.org/2000/svg"><sodipodi:namedview
     id="namedview51371"
     pagecolor="#ffffff"
     bordercolor="#000000"
     borderopacity="0.25"
     inkscape:showpageshadow="2"
     inkscape:pageopacity="0.0"
     inkscape:pagecheckerboard="0"
     inkscape:deskcolor="#d1d1d1"
     inkscape:document-units="mm"
     showgrid="false"
     inkscape:zoom="0.5946522"
     inkscape:cx="401.07478"
     inkscape:cy="230.38677"
     inkscape:window-width="1665"
     inkscape:window-height="1064"
     inkscape:window-x="0"
     inkscape:window-y="25"
     inkscape:window-maximized="0"
     inkscape:current-layer="layer1" /><defs
     id="defs51366"><linearGradient
       inkscape:collect="always"
       id="linearGradient55191"><stop
         style="stop-color:#5b75f0;stop-opacity:1;"
         offset="0"
         id="stop55187" /><stop
         style="stop-color:#00cab5;stop-opacity:1;"
         offset="1"
         id="stop55189" /></linearGradient><radialGradient
       inkscape:collect="always"
       xlink:href="#linearGradient55191"
       id="radialGradient55193"
       cx="110.0026"
       cy="155.32413"
       fx="110.0026"
       fy="155.32413"
       r="68.210037"
       gradientTransform="matrix(0.82470175,0.81417564,-0.94627858,0.95851259,176.26311,-65.002167)"
       gradientUnits="userSpaceOnUse" /></defs><g
     inkscape:label="Layer 1"
     inkscape:groupmode="layer"
     id="layer1"
     transform="translate(-41.792563,-95.229395)"><path
       style="fill:url(#radialGradient55193);fill-opacity:1;stroke-width:0.264583"
       d="m 94.642713,232.85861 c -1.90749,-0.95054 -2.75684,-2.26832 -2.89878,-4.49751 -0.0921,-1.4461 -0.003,-1.89765 0.61909,-3.12654 l 0.72671,-1.43632 -7.74767,-12.38689 c -4.26121,-6.81279 -7.88694,-12.54009 -8.05716,-12.72733 -0.17023,-0.18725 -0.50924,-0.26381 -0.75336,-0.17014 -0.39923,0.1532 -0.44357,0.83909 -0.44109,6.82275 l 0.003,6.65242 1.54312,0.71783 c 2.11323,0.98304 3.02405,2.34057 3.15752,4.70613 0.12031,2.13227 -0.61699,3.70807 -2.28451,4.8826 -1.4907,1.04997 -3.94055,1.25597 -5.48615,0.4613 -4.37243,-2.2481 -4.35345,-7.98838 0.0334,-10.11203 l 1.17899,-0.57074 v -6.7109 -6.71089 l -1.12447,-0.49741 c -2.72328,-1.20465 -3.9897,-4.21541 -2.97302,-7.06797 l 0.3772,-1.05834 -5.94506,-5.9663 -5.945062,-5.96631 v -8.13106 c 0,-6.27789 -0.07538,-8.15267 -0.330729,-8.22589 -1.928993,-0.55308 -3.118969,-1.1964 -4.185068,-2.2625 -3.918934,-3.91893 -2.697134,-10.47746 2.385687,-12.80618 1.855996,-0.85033 4.734814,-0.78079 6.628619,0.16011 l 1.454613,0.7227 11.60242,-11.59789 11.60242,-11.59789 -0.46122,-0.8919 c -1.18087,-2.28356 -0.20636,-5.54983 2.07701,-6.96153 1.78039,-1.10073 3.42316,-1.20656 5.31125,-0.34216 1.13722,0.52063 1.65943,0.96488 2.27471,1.93507 0.43924,0.69261 0.79862,1.41457 0.79862,1.60436 0,0.28114 4.379947,0.34508 23.638327,0.34508 h 23.63833 l 0.32968,-1.10036 c 1.03885,-3.46737 3.93081,-5.59913 7.59877,-5.6013 1.5235,-9e-4 2.17806,0.13905 3.36402,0.71929 3.97441,1.9445 5.59625,6.64837 3.64372,10.56799 l -0.81301,1.63209 7.43564,7.44562 7.43565,7.44562 1.08891,-0.4945 c 0.61977,-0.28145 1.69866,-0.497 2.50414,-0.50031 4.15399,-0.0171 6.74663,4.20844 4.93047,8.0357 l -0.4616,0.97274 1.75431,1.81715 1.75431,1.81715 v 7.92222 c 0,7.72183 0.0141,7.93497 0.55777,8.42625 1.57006,1.4188 2.43552,4.78929 1.84081,7.16896 -0.72686,2.90846 -2.86592,5.0298 -5.84012,5.79176 -1.90792,0.48878 -3.20842,0.3449 -5.2769,-0.58384 l -1.44241,-0.64763 -4.11685,4.11083 -4.11686,4.11082 h -4.82563 c -4.47471,0 -4.82564,0.0347 -4.82564,0.47737 0,0.26255 -0.3584,1.04249 -0.79643,1.7332 -0.92776,1.46293 -2.89821,2.54514 -4.64173,2.54935 -1.65595,0.004 -3.7308,-1.15774 -4.64647,-2.60161 -0.41981,-0.66197 -0.76329,-1.41839 -0.76329,-1.68094 0,-0.45367 -0.65011,-0.47737 -13.09687,-0.47737 -12.54159,0 -13.09688,0.0206 -13.09688,0.48691 0,0.2678 -0.37086,1.22906 -0.82413,2.13614 -1.92719,3.85664 -6.49848,5.29068 -10.51661,3.29911 l -1.5811,-0.78367 -2.9549,2.78857 -2.9549,2.78857 0.54647,1.19062 c 0.30055,0.65484 0.54646,1.66688 0.54646,2.24896 0,1.0251 -0.65604,2.7491 -1.36292,3.58159 -0.56091,0.66057 -1.911677,1.52921 -2.676487,1.72117 l -0.71147,0.17856 v 6.81454 6.81454 l 1.17381,0.44828 c 2.027807,0.77443 3.585737,3.02497 3.585737,5.17986 0,2.00099 -1.44049,4.2174 -3.285617,5.05545 -1.5474,0.70281 -3.2137,0.63684 -4.87932,-0.19318 z m 1.55332,-17.30305 v -6.83277 l -0.93277,-0.30783 c -2.16172,-0.71344 -3.54904,-2.75343 -3.55934,-5.23385 -0.0169,-4.07341 4.29898,-6.80229 7.90954,-5.0011 l 0.803387,0.40078 2.97285,-2.84234 2.97285,-2.84235 -0.71764,-1.59911 c -0.83416,-1.85877 -0.95594,-4.09826 -0.32076,-5.89857 0.21828,-0.61867 0.39688,-1.22071 0.39688,-1.33786 0,-0.19172 -15.959767,-10.3038 -16.262347,-10.3038 -0.0695,0 -0.66131,0.37708 -1.31516,0.83795 -0.9403,0.66278 -1.55274,0.87019 -2.92978,0.99219 l -1.74098,0.15423 -2.61619,6.18631 -2.6162,6.18632 0.90625,0.8547 c 1.15572,1.08998 1.70357,2.40944 1.70357,4.10288 0,1.55981 -0.44441,2.74564 -1.41672,3.78027 l -0.69314,0.73757 6.51394,10.37493 c 3.58266,5.70622 7.15579,11.40957 7.94027,12.67413 1.4176,2.28508 1.43117,2.2975 2.21391,2.02464 l 0.78758,-0.27455 z m -23.24608,-27.50549 c 0.63435,-0.28785 1.70314,-0.52597 2.37507,-0.52917 l 1.22171,-0.006 2.27559,-5.35781 c 1.25158,-2.9468 2.45475,-5.79273 2.67371,-6.32429 0.38449,-0.93341 0.37656,-0.98059 -0.23191,-1.37927 -0.34651,-0.22704 -0.95099,-1.06885 -1.34329,-1.8707 -0.60428,-1.23509 -0.69896,-1.72699 -0.61957,-3.21879 l 0.0937,-1.76089 -6.61458,-4.19685 c -3.63802,-2.30827 -6.70285,-4.19797 -6.81073,-4.19933 -0.10788,-0.001 -0.74065,0.41314 -1.40616,0.92113 -0.665499,0.50799 -1.857156,1.11175 -2.648118,1.34169 l -1.438116,0.41808 v 7.71803 7.71803 l 5.620094,5.62465 c 3.09104,3.09357 5.63789,5.62466 5.65964,5.62466 0.0217,0 0.55858,-0.23551 1.19294,-0.52335 z m 74.072127,-1.85982 c 0.51786,-1.20379 1.83442,-2.6908 2.61178,-2.94992 0.20696,-0.069 -0.41334,-2.55015 -1.89259,-7.57019 l -2.20045,-7.46756 -1.3558,-0.001 c -1.61811,-0.001 -3.30648,-0.55464 -4.52297,-1.4825 l -0.88802,-0.67732 -2.1761,1.93929 c -1.19685,1.06661 -5.58987,4.95065 -9.76226,8.63121 l -7.58618,6.69193 0.64152,1.37786 c 0.35283,0.75783 0.64268,1.56241 0.6441,1.78797 0.006,1.02663 0.24119,1.04511 13.27731,1.04511 h 12.63973 l 0.56993,-1.32485 z m 23.32737,-2.59249 3.96122,-3.93698 -0.68252,-1.03378 c -0.85856,-1.30044 -1.34094,-3.5055 -1.12424,-5.13912 l 0.16677,-1.25714 -1.02962,-0.41197 c -0.56629,-0.22658 -5.24176,-2.04027 -10.38993,-4.03042 -5.14817,-1.99014 -9.48404,-3.66716 -9.63525,-3.72671 -0.15121,-0.0595 -0.64702,0.41962 -1.10179,1.06481 -0.45478,0.64519 -1.37236,1.49276 -2.03907,1.88348 -0.98554,0.57757 -1.18488,0.81712 -1.06608,1.28121 0.0804,0.31396 1.06539,3.66645 2.18895,7.44999 l 2.04282,6.87917 1.18339,0.14614 c 0.65086,0.0804 1.55962,0.34578 2.01947,0.58979 1.01865,0.54053 2.37006,2.13233 2.60499,3.06837 0.095,0.37858 0.30235,0.76841 0.46076,0.86631 0.1584,0.0979 2.13095,0.19281 4.38345,0.21091 l 4.09545,0.0329 z m -62.48793,-1.75066 c 1.0464,-0.88048 3.45792,-1.74034 4.88089,-1.74034 0.64938,0 1.18153,-0.0893 1.18254,-0.19844 0.001,-0.10914 0.57853,-2.60819 1.28337,-5.55345 l 1.28152,-5.35502 -0.87987,-0.51913 c -0.48393,-0.28553 -1.21028,-1.00529 -1.6141,-1.59947 -0.6667,-0.98098 -0.81938,-1.06942 -1.66026,-0.96176 -0.96198,0.12317 -19.275657,3.47108 -20.899087,3.82054 -0.82202,0.17696 -0.94205,0.31354 -1.09659,1.24782 -0.0954,0.57701 -0.15631,1.06388 -0.13528,1.08193 0.20657,0.17725 16.710107,10.41823 16.789177,10.41823 0.0583,0 0.44877,-0.28841 0.86769,-0.64091 z m 19.83876,-8.39375 c 5.30115,-4.67802 9.671,-8.58566 9.71078,-8.68365 0.0398,-0.098 -0.1745,-0.73614 -0.47617,-1.41812 -0.45746,-1.03416 -0.64513,-1.21869 -1.13066,-1.11179 -0.32019,0.0705 -2.78482,0.4311 -5.47695,0.80134 -6.30465,0.86706 -6.04477,0.79814 -6.25082,1.65768 -0.61434,2.5628 -2.77532,4.56003 -4.93391,4.56003 h -0.88705 l -1.27666,5.35781 c -0.70216,2.9468 -1.31688,5.47688 -1.36605,5.6224 -0.075,0.22212 1.82555,1.62569 2.29791,1.69698 0.0831,0.0125 4.48844,-3.80466 9.78958,-8.48268 z m 46.92296,-4.33931 c 1.23741,-1.30855 1.35518,-1.53093 1.08587,-2.05053 -0.16614,-0.32054 -2.06827,-4.03561 -4.22696,-8.25571 -2.15869,-4.22011 -3.94555,-7.70082 -3.97081,-7.73492 -0.0253,-0.0341 -3.55021,1.46702 -7.83322,3.33582 -5.5233,2.40998 -7.75593,3.50492 -7.67939,3.76617 0.0593,0.20259 0.1084,1.22244 0.10899,2.26634 l 0.001,1.89799 8.35767,3.23153 c 4.59673,1.77734 9.31018,3.62132 10.47435,4.09773 1.16416,0.47641 2.15667,0.8768 2.20557,0.88975 0.0489,0.0129 0.71349,-0.63693 1.47685,-1.44417 z m -78.162627,-2.1148 c 8.328587,-1.50892 15.169027,-2.76801 15.806427,-2.90941 0.45295,-0.10048 0.63276,-0.38077 0.76175,-1.18746 0.43102,-2.69543 3.12759,-4.88645 5.81088,-4.72144 l 1.25257,0.077 3.92908,-9.07649 3.92907,-9.07649 -1.18444,-1.31738 c -1.09163,-1.21416 -1.30262,-1.70643 -1.55908,-3.63761 -0.078,-0.5875 -1.19165,-1.05182 -13.80221,-5.75469 -7.54455,-2.81359 -13.852017,-5.11563 -14.016617,-5.11563 -0.35536,0 -1.72118,1.37542 -1.72118,1.73328 0,0.13701 1.37677,3.00607 3.05949,6.3757 l 3.059477,6.1266 0.97115,-0.26814 c 2.16413,-0.59755 5.33182,0.40164 7.14472,2.25367 2.42872,2.48112 2.96294,5.8623 1.4211,8.99423 -0.53842,1.09369 -1.25118,2.05393 -1.91458,2.57935 -2.25509,1.78607 -5.34478,2.31253 -7.89189,1.3447 l -1.29995,-0.49394 -5.556877,6.73918 -5.55689,6.73919 0.52935,0.89718 c 0.40626,0.68856 0.6619,0.86651 1.09932,0.76526 0.31347,-0.0726 2.89167,-0.55258 5.72933,-1.06669 z m 87.312497,-6.81142 v -6.95435 l -1.45162,-1.43358 -1.45161,-1.43359 -1.26037,0.45175 c -2.21016,0.79217 -4.04008,0.43118 -5.70987,-1.12638 l -1.07524,-1.00298 -1.72931,0.77589 c -0.95112,0.42674 -1.77074,0.81732 -1.82138,0.86797 -0.0506,0.0506 1.79202,3.78478 4.0948,8.29809 l 4.18689,8.20601 2.11667,-0.13769 c 1.19918,-0.078 2.40338,-0.019 2.77812,0.136 1.36645,0.56536 1.32292,0.78412 1.32292,-6.64714 z m -99.615067,4.41068 c 0.85636,-0.0991 1.72009,-0.0146 2.45097,0.23975 l 1.1286,0.39279 5.54352,-6.70728 5.54351,-6.70729 -0.61562,-0.73767 c -1.10572,-1.32493 -1.5661,-2.54266 -1.69138,-4.47384 -0.17354,-2.67484 0.41945,-4.31545 2.20528,-6.10128 l 1.387717,-1.38772 -3.081777,-6.16137 -3.08179,-6.16138 -1.71979,-0.15987 c -0.94589,-0.0879 -2.05442,-0.31868 -2.4634,-0.51278 l -0.74362,-0.35291 -11.52804,11.52804 -11.52804,11.52804 0.70266,1.43619 c 0.8996,1.83872 1.12391,3.71755 0.66166,5.54211 -0.19762,0.78005 -0.36148,1.51094 -0.36412,1.6242 -0.003,0.11326 3.07836,2.15243 6.84669,4.53148 l 6.8515,4.32556 1.08655,-0.76587 c 0.69527,-0.49007 1.56275,-0.82098 2.40892,-0.9189 z m 46.431497,-3.36118 5.68622,-0.84202 0.17747,-1.24731 c 0.50376,-3.54058 3.30781,-6.2134 7.03601,-6.70672 1.32032,-0.1747 1.40025,-0.23038 1.63927,-1.1419 1.13482,-4.32781 5.02169,-22.66101 4.81876,-22.72866 -0.14124,-0.0471 -0.81373,-0.45449 -1.49443,-0.90537 -1.42748,-0.94552 -2.41186,-2.3112 -3.07247,-4.26257 l -0.46448,-1.37206 H 121.482 c -15.46542,0 -23.424087,0.09 -23.405067,0.26459 0.0159,0.14552 1.3553,0.75432 2.976557,1.35289 1.62126,0.59857 7.82433,2.90546 13.78459,5.12643 6.96541,2.59551 10.87348,3.92825 10.93937,3.73056 0.2312,-0.6936 1.50932,-1.93337 2.52999,-2.45408 4.50812,-2.29987 9.63329,2.47184 7.59766,7.0737 -0.31402,0.70991 -0.77476,1.51612 -1.02387,1.79159 -0.73529,0.8131 -2.40516,1.53778 -3.89865,1.69193 l -1.39384,0.14385 -1.72251,4.00073 c -0.94737,2.2004 -2.70071,6.25638 -3.8963,9.01328 -1.74281,4.01873 -2.11345,5.09412 -1.86942,5.42396 0.1674,0.22627 0.67596,0.97695 1.13012,1.66818 0.45416,0.69122 1.01631,1.24873 1.24922,1.23889 0.2329,-0.01 2.98227,-0.39678 6.10969,-0.85989 z m 28.20174,-8.3993 c 4.06287,-1.75541 7.4951,-3.29817 7.62718,-3.42837 0.14368,-0.14164 0.13283,-0.37406 -0.027,-0.57866 -0.14694,-0.18807 -2.0034,-3.73522 -4.12546,-7.88257 -5.89038,-11.51211 -6.37219,-12.40603 -6.60805,-12.26026 -0.12056,0.0745 -1.01324,0.21441 -1.98372,0.31089 l -1.76452,0.17541 -2.57791,11.50938 c -1.41784,6.33016 -2.58295,11.64012 -2.58912,11.79992 -0.006,0.1598 0.45241,0.49961 1.01905,0.75513 0.56664,0.25552 1.54393,0.98797 2.17175,1.62768 0.62783,0.63971 1.21559,1.1631 1.30615,1.1631 0.0906,0 3.48881,-1.43624 7.55168,-3.19165 z m 11.9511,-5.164 1.38906,-0.61106 v -1.34598 c 0,-0.74028 0.18301,-1.78396 0.40668,-2.31928 l 0.40667,-0.97332 -7.53969,-7.53969 c -4.14682,-4.14682 -7.62612,-7.45325 -7.73176,-7.34761 -0.16201,0.16201 3.55661,7.73543 6.00049,12.22072 0.39644,0.7276 1.57277,3.02626 2.61407,5.10813 2.12259,4.24372 1.7397,4.00235 4.45448,2.80809 z"
       id="path51865" /></g></svg>
